<?xml version="1.0" encoding="UTF-8"?>
<svg width="32px" height="32px" viewBox="0 0 32 32" version="1.1" xmlns="http://www.w3.org/2000/svg" xmlns:xlink="http://www.w3.org/1999/xlink">
    <!-- Generator: Sketch 58 (84663) - https://sketch.com -->
    <title>Slice</title>
    <desc>Created with Sketch.</desc>
    <g id="Add-Auction-Icon" stroke="none" stroke-width="1" fill="none" fill-rule="evenodd">
        <path d="M17.8188662,15.498968 L18.8099604,16.516498 L7.04623281,29.0197509 L6.87730736,29.1644722 C5.59064939,30.2297152 4.49804658,30.2763721 3.59949893,29.3044428 C2.66188398,28.2902558 2.82408975,27.1659085 4.08611624,25.9314011 L4.08611624,25.9314011 L7.99910806,22.3335524 C8.51430918,22.7503541 9.17030832,23 9.88461538,23 C11.5414696,23 12.8846154,21.6568542 12.8846154,20 L12.8846154,20 L12.884,17.884 L14.5,17.8846154 C16.0434004,17.8846154 17.3534721,16.8856166 17.8188662,15.498968 Z M27.604896,11.9231404 C27.7161014,11.8176622 27.8913088,11.82072 27.9987659,11.9300144 L27.9987659,11.9300144 L30.917843,14.8990005 L30.917843,14.8990005 C31.0281792,15.0152619 31.0234769,15.1931725 30.9108446,15.3000041 L30.9108446,15.3000041 L23.0844075,22.7233734 C22.9732021,22.8288517 22.7979947,22.8257939 22.6905376,22.7164995 L22.6905376,22.7164995 L19.7714604,19.7475134 C19.6611242,19.631252 19.6658266,19.4533414 19.7784589,19.3465098 L19.7784589,19.3465098 Z M20.337862,7.00215668 L26.3017485,13.0680109 L20.8121616,18.2748797 L17.8811501,15.2923091 C17.9586685,15.0028278 18,14.6985484 18,14.3846154 C18,12.959368 17.1481007,11.7330923 15.9257221,11.1872084 L20.337862,7.00215668 Z M17.868154,2.07362647 C17.9793594,1.96814823 18.1545667,1.97120599 18.2620239,2.08050039 L18.2620239,2.08050039 L21.181101,5.04948653 L21.181101,5.04948653 C21.2914372,5.16574789 21.2867348,5.3436585 21.1741026,5.45049011 L21.1741026,5.45049011 L15.3380964,10.9855975 C15.0695773,10.9196123 14.7888756,10.8846154 14.5,10.8846154 L14.5,10.8846154 L12.884,10.884 L12.8846154,9 C12.8846154,8.3689614 12.6897807,7.7834289 12.3569853,7.3002766 Z" id="Combined-Shape" stroke="#FFFFFF" stroke-width="0.936947749" fill="#FFFFFF"></path>
        <path d="M9.5,7 C10.8807119,7 12,8.11928813 12,9.5 L12,12 L14.5,12 C15.8807119,12 17,13.1192881 17,14.5 C17,15.8807119 15.8807119,17 14.5,17 L12,17 L12,19.5 C12,20.8807119 10.8807119,22 9.5,22 C8.11928813,22 7,20.8807119 7,19.5 L6.999,17 L4.5,17 C3.11928813,17 2,15.8807119 2,14.5 C2,13.1192881 3.11928813,12 4.5,12 L7,12 L7,9.5 C7,8.11928813 8.11928813,7 9.5,7 Z" id="Combined-Shape" fill="#FFFFFF"></path>
    </g>
</svg>