<?xml version="1.0" encoding="UTF-8"?>
<svg width="24px" height="24px" viewBox="0 0 24 24" version="1.1" xmlns="http://www.w3.org/2000/svg" xmlns:xlink="http://www.w3.org/1999/xlink">
    <!-- Generator: Sketch 58 (84663) - https://sketch.com -->
    <title>Slice</title>
    <desc>Created with Sketch.</desc>
    <g id="Add-Bottle-Icon" stroke="none" stroke-width="1" fill="none" fill-rule="evenodd">
        <path d="M15.7132457,1 C15.7400908,1.10178678 15.7535133,1.18391945 15.7535133,1.24639802 C15.7535133,1.30887659 15.7400908,1.39975368 15.7132457,1.5190293 C15.6753499,1.55347431 15.6564021,1.57826613 15.6564021,1.59340475 C15.6564021,1.60854337 15.6753499,1.62740578 15.7132457,1.64999197 C15.7279646,1.68724094 15.735324,1.71517767 15.735324,1.73380215 C15.735324,1.75242664 15.7279646,1.77867815 15.7132457,1.8125567 C15.6753499,1.83862798 15.6564021,1.8577267 15.6564021,1.86985287 C15.6564021,1.88197905 15.6753499,1.89870744 15.7132457,1.92003805 C15.7279646,2.14448035 15.735324,2.31367026 15.735324,2.42760779 C15.735324,2.54154532 15.7279646,2.71245162 15.7132457,2.94032668 C15.6484382,2.99060734 15.6160344,3.02753727 15.6160344,3.05111647 C15.6160344,3.06880087 15.6342615,3.09190848 15.6707157,3.1204393 L15.7132457,3.15077786 L15.7132457,4.51434879 C15.7519969,5.01570007 15.7994979,5.3710041 15.8557487,5.58026088 C16.0280971,6.22140886 16.1987716,6.72828259 16.2295114,7.13630329 C16.2702129,7.67654716 16.2142878,8.04847135 16.0617362,8.25207587 L16,8.32053757 L16,9.15612938 C16.6792632,9.63720849 17.1824124,10.0859592 17.5094474,10.5023815 C17.7956031,10.8667509 17.9565657,11.3097601 17.9923351,11.831409 L18,12.0597875 L18,21.5862221 C18,22.1837811 17.9222357,22.5622189 17.766707,22.7215355 C17.6370997,22.8542993 17.4553562,22.9408859 17.2214762,22.9812955 L17.0748919,23 L11.9251081,23 C11.6194267,22.9736735 11.3888217,22.880852 11.233293,22.7215355 C11.0777643,22.5622189 11,22.1837811 11,21.5862221 L11.0003029,20.5802558 C11.4725124,20.3193542 11.8441183,19.9424186 12.0993009,19.4652686 C12.3607616,18.9763797 12.5,18.3977449 12.5,17.622699 L12.5,17.622699 L12.5,16.5 L14,16.5 C15.6568542,16.5 17,15.1568542 17,13.5 C17,11.8431458 15.6568542,10.5 14,10.5 L14,10.5 L12.5,10.5 L12.4997305,9.52968525 C12.6542592,9.40741122 12.8210157,9.2828926 13,9.15612938 L13,8.32053757 C12.8012033,8.13882241 12.7246995,7.74407765 12.7704886,7.13630329 C12.8012284,6.72828259 12.9719029,6.22140886 13.1442513,5.58026088 C13.2005021,5.3710041 13.2480031,5.01570007 13.2867543,4.51434879 L13.2867543,3.15077786 C13.3515618,3.10791613 13.3839656,3.07469567 13.3839656,3.05111647 C13.3839656,3.02753727 13.3515618,2.99060734 13.2867543,2.94032668 C13.2720354,2.71245162 13.264676,2.54154532 13.264676,2.42760779 C13.264676,2.31367026 13.2720354,2.14448035 13.2867543,1.92003805 C13.3246501,1.89870744 13.3435979,1.88197905 13.3435979,1.86985287 C13.3435979,1.8577267 13.3246501,1.83862798 13.2867543,1.8125567 C13.2720354,1.77867815 13.264676,1.75242664 13.264676,1.73380215 C13.264676,1.71517767 13.2720354,1.68724094 13.2867543,1.64999197 C13.3246501,1.62740578 13.3435979,1.60854337 13.3435979,1.59340475 C13.3435979,1.57826613 13.3246501,1.55347431 13.2867543,1.5190293 C13.2599092,1.39975368 13.2464867,1.30887659 13.2464867,1.24639802 C13.2464867,1.18391945 13.2599092,1.10178678 13.2867543,1 L15.7132457,1 Z" id="Combined-Shape" stroke="#FFFFFF" fill="#FFFFFF" stroke-linecap="square"></path>
        <path d="M9.5,7 C10.6045695,7 11.5,7.8954305 11.5,9 L11.5,11.5 L14,11.5 C15.1045695,11.5 16,12.3954305 16,13.5 C16,14.6045695 15.1045695,15.5 14,15.5 L11.5,15.5 L11.5,18 C11.5,19.1045695 10.6045695,20 9.5,20 C8.3954305,20 7.5,19.1045695 7.5,18 L7.5,15.5 L5,15.5 C3.8954305,15.5 3,14.6045695 3,13.5 C3,12.3954305 3.8954305,11.5 5,11.5 L7.5,11.5 L7.5,9 C7.5,7.8954305 8.3954305,7 9.5,7 Z" id="Combined-Shape" fill="#FFFFFF"></path>
    </g>
</svg>