<?xml version="1.0" encoding="UTF-8"?>
<svg width="24px" height="24px" viewBox="0 0 24 24" version="1.1" xmlns="http://www.w3.org/2000/svg" xmlns:xlink="http://www.w3.org/1999/xlink">
    <!-- Generator: Sketch 58 (84663) - https://sketch.com -->
    <title>Slice</title>
    <desc>Created with Sketch.</desc>
    <g id="Page-2-Copy" stroke="none" stroke-width="1" fill="none" fill-rule="evenodd" stroke-linecap="square">
        <g id="Bottle2" transform="translate(9.000000, 1.000000)" fill="#FFFFFF" stroke="#FFFFFF">
            <path d="M3,22 L6.07489193,22 C6.38057328,21.9736735 6.61117829,21.880852 6.76670698,21.7215355 C6.92223566,21.5622189 7,21.1837811 7,20.5862221 L7,11.0597875 C7,10.4379391 6.83648247,9.91880372 6.50944742,9.50238145 C6.18241237,9.08595918 5.67926323,8.63720849 5,8.15612938 L5,7.32053757 C5.19879672,7.13882241 5.27530053,6.74407765 5.22951144,6.13630329 C5.19877158,5.72828259 5.02809711,5.22140886 4.85574869,4.58026088 C4.79949791,4.3710041 4.7519969,4.01570007 4.71324565,3.51434879 L4.71324565,2.15077786 C4.64843818,2.10791613 4.61603445,2.07469567 4.61603445,2.05111647 C4.61603445,2.02753727 4.64843818,1.99060734 4.71324565,1.94032668 C4.72796455,1.71245162 4.735324,1.54154532 4.735324,1.42760779 C4.735324,1.31367026 4.72796455,1.14448035 4.71324565,0.920038048 C4.67534994,0.898707439 4.65640208,0.881979048 4.65640208,0.869852874 C4.65640208,0.8577267 4.67534994,0.838627977 4.71324565,0.812556703 C4.72796455,0.778678155 4.735324,0.752426639 4.735324,0.733802154 C4.735324,0.71517767 4.72796455,0.687240943 4.71324565,0.649991974 C4.67534994,0.627405781 4.65640208,0.608543375 4.65640208,0.593404754 C4.65640208,0.578266133 4.67534994,0.553474313 4.71324565,0.519029296 C4.74009075,0.399753677 4.75351331,0.308876585 4.75351331,0.24639802 C4.75351331,0.183919454 4.74009075,0.101786781 4.71324565,0 L3,0" id="Line-7"></path>
            <path d="M0,22 L3.07489193,22 C3.38057328,21.9736735 3.61117829,21.880852 3.76670698,21.7215355 C3.92223566,21.5622189 4,21.1837811 4,20.5862221 L4,11.0597875 C4,10.4379391 3.83648247,9.91880372 3.50944742,9.50238145 C3.18241237,9.08595918 2.67926323,8.63720849 2,8.15612938 L2,7.32053757 C2.19879672,7.13882241 2.27530053,6.74407765 2.22951144,6.13630329 C2.19877158,5.72828259 2.02809711,5.22140886 1.85574869,4.58026088 C1.79949791,4.3710041 1.7519969,4.01570007 1.71324565,3.51434879 L1.71324565,2.15077786 C1.64843818,2.10791613 1.61603445,2.07469567 1.61603445,2.05111647 C1.61603445,2.02753727 1.64843818,1.99060734 1.71324565,1.94032668 C1.72796455,1.71245162 1.735324,1.54154532 1.735324,1.42760779 C1.735324,1.31367026 1.72796455,1.14448035 1.71324565,0.920038048 C1.67534994,0.898707439 1.65640208,0.881979048 1.65640208,0.869852874 C1.65640208,0.8577267 1.67534994,0.838627977 1.71324565,0.812556703 C1.72796455,0.778678155 1.735324,0.752426639 1.735324,0.733802154 C1.735324,0.71517767 1.72796455,0.687240943 1.71324565,0.649991974 C1.67534994,0.627405781 1.65640208,0.608543375 1.65640208,0.593404754 C1.65640208,0.578266133 1.67534994,0.553474313 1.71324565,0.519029296 C1.74009075,0.399753677 1.75351331,0.308876585 1.75351331,0.24639802 C1.75351331,0.183919454 1.74009075,0.101786781 1.71324565,0 L0,0" id="Line-7" transform="translate(2.000000, 11.000000) scale(-1, 1) translate(-2.000000, -11.000000) "></path>
        </g>
    </g>
</svg>