<?xml version="1.0" encoding="UTF-8"?>
<svg width="24px" height="24px" viewBox="0 0 24 24" version="1.1" xmlns="http://www.w3.org/2000/svg" xmlns:xlink="http://www.w3.org/1999/xlink">
    <!-- Generator: Sketch 58 (84663) - https://sketch.com -->
    <title>Slice</title>
    <desc>Created with Sketch.</desc>
    <g id="Page-2" stroke="none" stroke-width="1" fill="none" fill-rule="evenodd" stroke-linecap="square">
        <g id="Bottle2" transform="translate(8.000000, 1.000000)" stroke="#FFFFFF">
            <path d="M4,22 L7.84361492,22 C8.2257166,21.9736735 8.51397287,21.880852 8.70838372,21.7215355 C8.90279457,21.5622189 9,21.1837811 9,20.5862221 L9,11.0597875 C9,10.4379391 8.79560309,9.91880372 8.38680928,9.50238145 C7.97801546,9.08595918 7.34907903,8.63720849 6.5,8.15612938 L6.5,7.32053757 C6.7484959,7.13882241 6.84412566,6.74407765 6.7868893,6.13630329 C6.74846447,5.72828259 6.53512139,5.22140886 6.31968586,4.58026088 C6.24937239,4.3710041 6.18999612,4.01570007 6.14155706,3.51434879 L6.14155706,2.15077786 C6.06054773,2.10791613 6.02004306,2.07469567 6.02004306,2.05111647 C6.02004306,2.02753727 6.06054773,1.99060734 6.14155706,1.94032668 C6.15995569,1.71245162 6.169155,1.54154532 6.169155,1.42760779 C6.169155,1.31367026 6.15995569,1.14448035 6.14155706,0.920038048 C6.09418742,0.898707439 6.0705026,0.881979048 6.0705026,0.869852874 C6.0705026,0.8577267 6.09418742,0.838627977 6.14155706,0.812556703 C6.15995569,0.778678155 6.169155,0.752426639 6.169155,0.733802154 C6.169155,0.71517767 6.15995569,0.687240943 6.14155706,0.649991974 C6.09418742,0.627405781 6.0705026,0.608543375 6.0705026,0.593404754 C6.0705026,0.578266133 6.09418742,0.553474313 6.14155706,0.519029296 C6.17511344,0.399753677 6.19189163,0.308876585 6.19189163,0.24639802 C6.19189163,0.183919454 6.17511344,0.101786781 6.14155706,0 L4,0" id="Line-7"></path>
            <path d="M0,22 L3.84361492,22 C4.2257166,21.9736735 4.51397287,21.880852 4.70838372,21.7215355 C4.90279457,21.5622189 5,21.1837811 5,20.5862221 L5,11.0597875 C5,10.4379391 4.79560309,9.91880372 4.38680928,9.50238145 C3.97801546,9.08595918 3.34907903,8.63720849 2.5,8.15612938 L2.5,7.32053757 C2.7484959,7.13882241 2.84412566,6.74407765 2.7868893,6.13630329 C2.74846447,5.72828259 2.53512139,5.22140886 2.31968586,4.58026088 C2.24937239,4.3710041 2.18999612,4.01570007 2.14155706,3.51434879 L2.14155706,2.15077786 C2.06054773,2.10791613 2.02004306,2.07469567 2.02004306,2.05111647 C2.02004306,2.02753727 2.06054773,1.99060734 2.14155706,1.94032668 C2.15995569,1.71245162 2.169155,1.54154532 2.169155,1.42760779 C2.169155,1.31367026 2.15995569,1.14448035 2.14155706,0.920038048 C2.09418742,0.898707439 2.0705026,0.881979048 2.0705026,0.869852874 C2.0705026,0.8577267 2.09418742,0.838627977 2.14155706,0.812556703 C2.15995569,0.778678155 2.169155,0.752426639 2.169155,0.733802154 C2.169155,0.71517767 2.15995569,0.687240943 2.14155706,0.649991974 C2.09418742,0.627405781 2.0705026,0.608543375 2.0705026,0.593404754 C2.0705026,0.578266133 2.09418742,0.553474313 2.14155706,0.519029296 C2.17511344,0.399753677 2.19189163,0.308876585 2.19189163,0.24639802 C2.19189163,0.183919454 2.17511344,0.101786781 2.14155706,0 L0,0" id="Line-7" transform="translate(2.500000, 11.000000) scale(-1, 1) translate(-2.500000, -11.000000) "></path>
        </g>
    </g>
</svg>